<mxfile host="app.diagrams.net" agent="Mozilla/5.0 (Macintosh; Intel Mac OS X 10_15_7) AppleWebKit/537.36 (KHTML, like Gecko) Chrome/138.0.0.0 Safari/537.36" version="28.2.0">
  <diagram name="Page-1" id="7pBOCVVXJswLAmvWJ1w3">
    <mxGraphModel dx="713" dy="400" grid="0" gridSize="10" guides="1" tooltips="1" connect="1" arrows="1" fold="1" page="1" pageScale="1" pageWidth="850" pageHeight="1100" math="0" shadow="0">
      <root>
        <mxCell id="0" />
        <mxCell id="1" parent="0" />
        <mxCell id="ZuxlLfwOZQ78_fmsPdR4-36" value="3 GND" style="text;html=1;align=center;verticalAlign=middle;resizable=0;points=[];autosize=1;strokeColor=none;fillColor=none;fontFamily=Helvetica;fontSize=8;fontColor=#000000;labelBackgroundColor=none;" vertex="1" parent="1">
          <mxGeometry x="230" y="154" width="42" height="22" as="geometry" />
        </mxCell>
        <mxCell id="ZuxlLfwOZQ78_fmsPdR4-21" value="Wanderer" style="rounded=0;whiteSpace=wrap;html=1;fillColor=#f5f5f5;fontColor=#333333;strokeColor=#666666;" vertex="1" parent="1">
          <mxGeometry x="180" y="80" width="160" height="80" as="geometry" />
        </mxCell>
        <mxCell id="ZuxlLfwOZQ78_fmsPdR4-6" style="edgeStyle=orthogonalEdgeStyle;rounded=0;orthogonalLoop=1;jettySize=auto;html=1;exitX=0.202;exitY=1.02;exitDx=0;exitDy=0;entryX=0.25;entryY=0;entryDx=0;entryDy=0;endArrow=none;endFill=0;strokeColor=#0000CC;exitPerimeter=0;" edge="1" parent="1" source="ZuxlLfwOZQ78_fmsPdR4-1" target="ZuxlLfwOZQ78_fmsPdR4-3">
          <mxGeometry relative="1" as="geometry" />
        </mxCell>
        <mxCell id="ZuxlLfwOZQ78_fmsPdR4-1" value="Modbus RJ-12" style="rounded=0;whiteSpace=wrap;html=1;fillColor=#f5f5f5;fontColor=#333333;strokeColor=#666666;fontSize=10;" vertex="1" parent="1">
          <mxGeometry x="180" y="140" width="113" height="20" as="geometry" />
        </mxCell>
        <mxCell id="ZuxlLfwOZQ78_fmsPdR4-2" value="Buck&lt;div&gt;Converter&lt;/div&gt;" style="rounded=0;whiteSpace=wrap;html=1;fontSize=10;fillColor=#d5e8d4;strokeColor=#82b366;" vertex="1" parent="1">
          <mxGeometry x="255" y="200" width="50" height="40" as="geometry" />
        </mxCell>
        <mxCell id="ZuxlLfwOZQ78_fmsPdR4-3" value="MAX232" style="rounded=0;whiteSpace=wrap;html=1;fontSize=10;fillColor=#d5e8d4;strokeColor=#82b366;" vertex="1" parent="1">
          <mxGeometry x="190" y="200" width="50" height="40" as="geometry" />
        </mxCell>
        <mxCell id="ZuxlLfwOZQ78_fmsPdR4-4" value="Arduino Nano" style="rounded=0;whiteSpace=wrap;html=1;fontSize=10;fillColor=#d5e8d4;strokeColor=#82b366;" vertex="1" parent="1">
          <mxGeometry x="190" y="280" width="90" height="40" as="geometry" />
        </mxCell>
        <mxCell id="ZuxlLfwOZQ78_fmsPdR4-5" value="WS2812 strip" style="rounded=0;whiteSpace=wrap;html=1;fontSize=10;fillColor=#f5f5f5;strokeColor=#666666;fontColor=#333333;" vertex="1" parent="1">
          <mxGeometry x="320" y="290" width="120" height="20" as="geometry" />
        </mxCell>
        <mxCell id="ZuxlLfwOZQ78_fmsPdR4-7" style="edgeStyle=orthogonalEdgeStyle;rounded=0;orthogonalLoop=1;jettySize=auto;html=1;exitX=0.276;exitY=1.003;exitDx=0;exitDy=0;endArrow=none;endFill=0;exitPerimeter=0;strokeColor=#00CC00;" edge="1" parent="1" source="ZuxlLfwOZQ78_fmsPdR4-1">
          <mxGeometry relative="1" as="geometry">
            <mxPoint x="210" y="170" as="sourcePoint" />
            <mxPoint x="210" y="200" as="targetPoint" />
          </mxGeometry>
        </mxCell>
        <mxCell id="ZuxlLfwOZQ78_fmsPdR4-8" style="edgeStyle=orthogonalEdgeStyle;rounded=0;orthogonalLoop=1;jettySize=auto;html=1;exitX=0.75;exitY=1;exitDx=0;exitDy=0;endArrow=none;endFill=0;entryX=0.635;entryY=0.001;entryDx=0;entryDy=0;entryPerimeter=0;" edge="1" parent="1" source="ZuxlLfwOZQ78_fmsPdR4-1" target="ZuxlLfwOZQ78_fmsPdR4-3">
          <mxGeometry relative="1" as="geometry">
            <mxPoint x="240" y="160" as="sourcePoint" />
            <mxPoint x="240" y="200" as="targetPoint" />
            <Array as="points">
              <mxPoint x="266" y="160" />
              <mxPoint x="266" y="188" />
              <mxPoint x="222" y="188" />
            </Array>
          </mxGeometry>
        </mxCell>
        <mxCell id="ZuxlLfwOZQ78_fmsPdR4-9" style="edgeStyle=orthogonalEdgeStyle;rounded=0;orthogonalLoop=1;jettySize=auto;html=1;exitX=0.75;exitY=1;exitDx=0;exitDy=0;endArrow=none;endFill=0;entryX=0.25;entryY=0;entryDx=0;entryDy=0;" edge="1" parent="1" source="ZuxlLfwOZQ78_fmsPdR4-1" target="ZuxlLfwOZQ78_fmsPdR4-2">
          <mxGeometry relative="1" as="geometry">
            <mxPoint x="269" y="170" as="sourcePoint" />
            <mxPoint x="250" y="210" as="targetPoint" />
            <Array as="points">
              <mxPoint x="266" y="160" />
              <mxPoint x="266" y="188" />
              <mxPoint x="268" y="188" />
            </Array>
          </mxGeometry>
        </mxCell>
        <mxCell id="ZuxlLfwOZQ78_fmsPdR4-10" style="edgeStyle=orthogonalEdgeStyle;rounded=0;orthogonalLoop=1;jettySize=auto;html=1;endArrow=none;endFill=0;entryX=0.5;entryY=0;entryDx=0;entryDy=0;strokeColor=#FF8000;exitX=0.916;exitY=0.985;exitDx=0;exitDy=0;exitPerimeter=0;" edge="1" parent="1" source="ZuxlLfwOZQ78_fmsPdR4-1" target="ZuxlLfwOZQ78_fmsPdR4-2">
          <mxGeometry relative="1" as="geometry">
            <mxPoint x="280" y="160" as="sourcePoint" />
            <mxPoint x="327" y="220" as="targetPoint" />
          </mxGeometry>
        </mxCell>
        <mxCell id="ZuxlLfwOZQ78_fmsPdR4-11" style="edgeStyle=orthogonalEdgeStyle;rounded=0;orthogonalLoop=1;jettySize=auto;html=1;exitX=0.25;exitY=1;exitDx=0;exitDy=0;entryX=0.131;entryY=-0.007;entryDx=0;entryDy=0;endArrow=none;endFill=0;strokeColor=#0000CC;entryPerimeter=0;" edge="1" parent="1" source="ZuxlLfwOZQ78_fmsPdR4-3" target="ZuxlLfwOZQ78_fmsPdR4-4">
          <mxGeometry relative="1" as="geometry">
            <mxPoint x="200" y="250" as="sourcePoint" />
            <mxPoint x="201" y="290" as="targetPoint" />
          </mxGeometry>
        </mxCell>
        <mxCell id="ZuxlLfwOZQ78_fmsPdR4-12" style="edgeStyle=orthogonalEdgeStyle;rounded=0;orthogonalLoop=1;jettySize=auto;html=1;exitX=0.5;exitY=1;exitDx=0;exitDy=0;endArrow=none;endFill=0;strokeColor=#00CC00;entryX=0.279;entryY=-0.016;entryDx=0;entryDy=0;entryPerimeter=0;" edge="1" parent="1" source="ZuxlLfwOZQ78_fmsPdR4-3" target="ZuxlLfwOZQ78_fmsPdR4-4">
          <mxGeometry relative="1" as="geometry">
            <mxPoint x="208" y="250" as="sourcePoint" />
            <mxPoint x="208" y="290" as="targetPoint" />
          </mxGeometry>
        </mxCell>
        <mxCell id="ZuxlLfwOZQ78_fmsPdR4-13" style="edgeStyle=orthogonalEdgeStyle;rounded=0;orthogonalLoop=1;jettySize=auto;html=1;exitX=0.75;exitY=1;exitDx=0;exitDy=0;endArrow=none;endFill=0;entryX=0.5;entryY=0;entryDx=0;entryDy=0;" edge="1" parent="1" source="ZuxlLfwOZQ78_fmsPdR4-3" target="ZuxlLfwOZQ78_fmsPdR4-4">
          <mxGeometry relative="1" as="geometry">
            <mxPoint x="320" y="180" as="sourcePoint" />
            <mxPoint x="347" y="220" as="targetPoint" />
            <Array as="points">
              <mxPoint x="228" y="250" />
              <mxPoint x="235" y="250" />
            </Array>
          </mxGeometry>
        </mxCell>
        <mxCell id="ZuxlLfwOZQ78_fmsPdR4-14" style="edgeStyle=orthogonalEdgeStyle;rounded=0;orthogonalLoop=1;jettySize=auto;html=1;exitX=0.25;exitY=1;exitDx=0;exitDy=0;endArrow=none;endFill=0;entryX=0.5;entryY=0;entryDx=0;entryDy=0;" edge="1" parent="1" source="ZuxlLfwOZQ78_fmsPdR4-2" target="ZuxlLfwOZQ78_fmsPdR4-4">
          <mxGeometry relative="1" as="geometry">
            <mxPoint x="260" y="260" as="sourcePoint" />
            <mxPoint x="267" y="300" as="targetPoint" />
            <Array as="points">
              <mxPoint x="268" y="250" />
              <mxPoint x="235" y="250" />
            </Array>
          </mxGeometry>
        </mxCell>
        <mxCell id="ZuxlLfwOZQ78_fmsPdR4-15" style="edgeStyle=orthogonalEdgeStyle;rounded=0;orthogonalLoop=1;jettySize=auto;html=1;endArrow=none;endFill=0;entryX=0.75;entryY=0;entryDx=0;entryDy=0;strokeColor=#FF0000;exitX=0.5;exitY=1;exitDx=0;exitDy=0;" edge="1" parent="1" source="ZuxlLfwOZQ78_fmsPdR4-2" target="ZuxlLfwOZQ78_fmsPdR4-4">
          <mxGeometry relative="1" as="geometry">
            <mxPoint x="305" y="250" as="sourcePoint" />
            <mxPoint x="305" y="290" as="targetPoint" />
          </mxGeometry>
        </mxCell>
        <mxCell id="ZuxlLfwOZQ78_fmsPdR4-16" style="edgeStyle=orthogonalEdgeStyle;rounded=0;orthogonalLoop=1;jettySize=auto;html=1;endArrow=none;endFill=0;entryX=0;entryY=0.25;entryDx=0;entryDy=0;strokeColor=#FF0000;exitX=1;exitY=0.25;exitDx=0;exitDy=0;" edge="1" parent="1" source="ZuxlLfwOZQ78_fmsPdR4-4" target="ZuxlLfwOZQ78_fmsPdR4-5">
          <mxGeometry relative="1" as="geometry">
            <mxPoint x="312" y="250" as="sourcePoint" />
            <mxPoint x="290" y="290" as="targetPoint" />
          </mxGeometry>
        </mxCell>
        <mxCell id="ZuxlLfwOZQ78_fmsPdR4-17" style="edgeStyle=orthogonalEdgeStyle;rounded=0;orthogonalLoop=1;jettySize=auto;html=1;exitX=0;exitY=0.5;exitDx=0;exitDy=0;entryX=1;entryY=0.5;entryDx=0;entryDy=0;endArrow=none;endFill=0;strokeColor=#7F00FF;" edge="1" parent="1" source="ZuxlLfwOZQ78_fmsPdR4-5" target="ZuxlLfwOZQ78_fmsPdR4-4">
          <mxGeometry relative="1" as="geometry">
            <mxPoint x="291" y="310" as="sourcePoint" />
            <mxPoint x="290" y="350" as="targetPoint" />
          </mxGeometry>
        </mxCell>
        <mxCell id="ZuxlLfwOZQ78_fmsPdR4-18" style="edgeStyle=orthogonalEdgeStyle;rounded=0;orthogonalLoop=1;jettySize=auto;html=1;exitX=0;exitY=0.75;exitDx=0;exitDy=0;endArrow=none;endFill=0;entryX=1;entryY=0.75;entryDx=0;entryDy=0;" edge="1" parent="1" source="ZuxlLfwOZQ78_fmsPdR4-5" target="ZuxlLfwOZQ78_fmsPdR4-4">
          <mxGeometry relative="1" as="geometry">
            <mxPoint x="363" y="250" as="sourcePoint" />
            <mxPoint x="330" y="290" as="targetPoint" />
          </mxGeometry>
        </mxCell>
        <mxCell id="ZuxlLfwOZQ78_fmsPdR4-20" value="Vin" style="text;html=1;align=center;verticalAlign=middle;resizable=0;points=[];autosize=1;strokeColor=none;fillColor=none;fontFamily=Helvetica;fontSize=8;fontColor=#FF8000;labelBackgroundColor=none;" vertex="1" parent="1">
          <mxGeometry x="273" y="185" width="30" height="20" as="geometry" />
        </mxCell>
        <mxCell id="ZuxlLfwOZQ78_fmsPdR4-22" value="5v" style="text;html=1;align=center;verticalAlign=middle;resizable=0;points=[];autosize=1;strokeColor=none;fillColor=none;fontFamily=Helvetica;fontSize=8;fontColor=#FF0000;labelBackgroundColor=none;" vertex="1" parent="1">
          <mxGeometry x="272" y="235" width="30" height="20" as="geometry" />
        </mxCell>
        <mxCell id="ZuxlLfwOZQ78_fmsPdR4-23" value="5v" style="text;html=1;align=center;verticalAlign=middle;resizable=0;points=[];autosize=1;strokeColor=none;fillColor=none;fontFamily=Helvetica;fontSize=8;fontColor=#FF0000;labelBackgroundColor=none;" vertex="1" parent="1">
          <mxGeometry x="250" y="263" width="30" height="20" as="geometry" />
        </mxCell>
        <mxCell id="ZuxlLfwOZQ78_fmsPdR4-24" value="5v" style="text;html=1;align=center;verticalAlign=middle;resizable=0;points=[];autosize=1;strokeColor=none;fillColor=none;fontFamily=Helvetica;fontSize=8;fontColor=#FF0000;labelBackgroundColor=none;" vertex="1" parent="1">
          <mxGeometry x="299" y="280" width="30" height="20" as="geometry" />
        </mxCell>
        <mxCell id="ZuxlLfwOZQ78_fmsPdR4-25" value="1 Tx" style="text;html=1;align=center;verticalAlign=middle;resizable=0;points=[];autosize=1;strokeColor=none;fillColor=none;fontFamily=Helvetica;fontSize=8;fontColor=#0000CC;labelBackgroundColor=none;" vertex="1" parent="1">
          <mxGeometry x="177.5" y="154" width="33" height="22" as="geometry" />
        </mxCell>
        <mxCell id="ZuxlLfwOZQ78_fmsPdR4-26" value="Rx" style="text;html=1;align=center;verticalAlign=middle;resizable=0;points=[];autosize=1;strokeColor=none;fillColor=none;fontFamily=Helvetica;fontSize=8;fontColor=#0000CC;labelBackgroundColor=none;" vertex="1" parent="1">
          <mxGeometry x="182" y="183" width="28" height="22" as="geometry" />
        </mxCell>
        <mxCell id="ZuxlLfwOZQ78_fmsPdR4-28" value="Tx" style="text;html=1;align=center;verticalAlign=middle;resizable=0;points=[];autosize=1;strokeColor=none;fillColor=none;fontFamily=Helvetica;fontSize=8;fontColor=#0000CC;labelBackgroundColor=none;" vertex="1" parent="1">
          <mxGeometry x="183" y="234" width="27" height="22" as="geometry" />
        </mxCell>
        <mxCell id="ZuxlLfwOZQ78_fmsPdR4-29" value="Rx" style="text;html=1;align=center;verticalAlign=middle;resizable=0;points=[];autosize=1;strokeColor=none;fillColor=none;fontFamily=Helvetica;fontSize=8;fontColor=#0000CC;labelBackgroundColor=none;" vertex="1" parent="1">
          <mxGeometry x="180" y="263" width="28" height="22" as="geometry" />
        </mxCell>
        <mxCell id="ZuxlLfwOZQ78_fmsPdR4-30" value="Tx" style="text;html=1;align=center;verticalAlign=middle;resizable=0;points=[];autosize=1;strokeColor=none;fillColor=none;fontFamily=Helvetica;fontSize=8;fontColor=#00CC00;labelBackgroundColor=none;" vertex="1" parent="1">
          <mxGeometry x="202" y="184" width="27" height="22" as="geometry" />
        </mxCell>
        <mxCell id="ZuxlLfwOZQ78_fmsPdR4-31" value="2 Rx" style="text;html=1;align=center;verticalAlign=middle;resizable=0;points=[];autosize=1;strokeColor=none;fillColor=none;fontFamily=Helvetica;fontSize=8;fontColor=#00CC00;labelBackgroundColor=none;" vertex="1" parent="1">
          <mxGeometry x="202" y="154" width="34" height="22" as="geometry" />
        </mxCell>
        <mxCell id="ZuxlLfwOZQ78_fmsPdR4-32" value="Tx" style="text;html=1;align=center;verticalAlign=middle;resizable=0;points=[];autosize=1;strokeColor=none;fillColor=none;fontFamily=Helvetica;fontSize=8;fontColor=#00CC00;labelBackgroundColor=none;" vertex="1" parent="1">
          <mxGeometry x="194" y="264" width="27" height="22" as="geometry" />
        </mxCell>
        <mxCell id="ZuxlLfwOZQ78_fmsPdR4-33" value="Rx" style="text;html=1;align=center;verticalAlign=middle;resizable=0;points=[];autosize=1;strokeColor=none;fillColor=none;fontFamily=Helvetica;fontSize=8;fontColor=#00CC00;labelBackgroundColor=none;" vertex="1" parent="1">
          <mxGeometry x="195" y="234" width="28" height="22" as="geometry" />
        </mxCell>
        <mxCell id="ZuxlLfwOZQ78_fmsPdR4-34" value="Data" style="text;html=1;align=center;verticalAlign=middle;resizable=0;points=[];autosize=1;strokeColor=none;fillColor=none;fontFamily=Helvetica;fontSize=8;fontColor=#7F00FF;labelBackgroundColor=none;" vertex="1" parent="1">
          <mxGeometry x="273" y="285" width="35" height="22" as="geometry" />
        </mxCell>
        <mxCell id="ZuxlLfwOZQ78_fmsPdR4-38" value="6 Vcc" style="text;html=1;align=center;verticalAlign=middle;resizable=0;points=[];autosize=1;strokeColor=none;fillColor=none;fontFamily=Helvetica;fontSize=8;fontColor=#FF8000;labelBackgroundColor=none;" vertex="1" parent="1">
          <mxGeometry x="277" y="154" width="38" height="22" as="geometry" />
        </mxCell>
      </root>
    </mxGraphModel>
  </diagram>
</mxfile>
